<?xml version="1.0" standalone="no"?><!DOCTYPE svg PUBLIC "-//W3C//DTD SVG 1.1//EN" "http://www.w3.org/Graphics/SVG/1.1/DTD/svg11.dtd"><svg t="1524032592368" class="icon" style="" viewBox="0 0 1024 1024" version="1.1" xmlns="http://www.w3.org/2000/svg" p-id="3391" xmlns:xlink="http://www.w3.org/1999/xlink" width="200" height="200"><defs><style type="text/css"></style></defs><path d="M647.264256 816.52736c-1.72032-6.207488-5.388288-11.454464-10.233856-15.1552-4.841472-3.692544-10.858496-5.834752-17.27488-5.834752l-30.3104 0L559.14496 795.537408l0-51.750912 0-51.74272c-7.684096 1.292288-15.460352 2.289664-23.324672 2.973696-7.86432 0.67584-15.81056 1.032192-23.826432 1.032192-8.032256 0-15.986688-0.356352-23.853056-1.032192-7.86432-0.684032-15.64672-1.681408-23.32672-2.973696l0 51.74272 0 51.750912-30.285824 0-30.283776 0c-6.416384 0-12.435456 2.142208-17.283072 5.834752-4.847616 3.702784-8.513536 8.947712-10.225664 15.1552l-10.760192 38.805504-10.76224 38.813696c-1.183744 4.317184-1.339392 8.781824-0.520192 13.07648 0.813056 4.274176 2.605056 8.372224 5.296128 11.935744 2.7136 3.571712 6.168576 6.4 10.061824 8.339456 3.889152 1.949696 8.224768 3.002368 12.691456 3.002368l129.24928 0 129.253376 0c0.04096 0 0.079872 0 0.11264 0 0.04096 0 0.083968 0 0.129024 0 7.8848 0 15.024128-3.209216 20.191232-8.402944 5.1712-5.185536 8.359936-12.363776 8.359936-20.279296 0-1.96608-0.190464-3.889152-0.567296-5.756928-0.372736-1.86368-0.9216-3.657728-1.6384-5.357568l-10.283008-37.087232L647.264256 816.52736 647.264256 816.52736 647.264256 816.52736zM802.228224 201.508864c-3.95264-1.058816-7.940096-1.837056-11.927552-2.349056-3.991552-0.520192-7.989248-0.772096-11.976704-0.772096-1.8432 0-3.6864 0.06144-5.523456 0.17408-1.835008 0.114688-3.672064 0.278528-5.505024 0.477184L767.295488 160.794624 767.295488 122.544128c0-7.448576-3.008512-14.20288-7.868416-19.091456-4.857856-4.880384-11.573248-7.90528-18.993152-7.90528L512.012288 95.547392 283.588608 95.547392c-7.424 0-14.147584 3.024896-19.017728 7.90528-4.868096 4.890624-7.876608 11.644928-7.876608 19.091456l0 38.250496 0 38.242304c-1.837056-0.200704-3.672064-0.364544-5.505024-0.477184-1.835008-0.11264-3.670016-0.16384-5.505024-0.16384-3.997696 0-7.993344 0.241664-11.9808 0.761856-3.9936 0.512-7.972864 1.292288-11.925504 2.349056-31.350784 8.38656-55.365632 32.39936-68.868096 64.4608-13.502464 32.0512-16.480256 72.142848-5.74464 112.674816 9.402368 35.432448 27.731968 65.333248 50.618368 86.386688 22.884352 21.049344 50.331648 33.236992 77.9776 33.236992 1.398784 0 2.799616-0.067584 4.204544-0.172032 1.400832-0.104448 2.809856-0.243712 4.214784-0.382976 1.024 2.228224 2.076672 4.429824 3.160064 6.61504 1.083392 2.174976 2.197504 4.335616 3.334144 6.473728 0.210944 0.39936 0.423936 0.800768 0.632832 1.19808 0.208896 0.38912 0.41984 0.780288 0.632832 1.153024 1.673216 3.096576 3.397632 6.156288 5.175296 9.166848 1.78176 3.008512 3.610624 5.974016 5.496832 8.884224 0.208896 0.331776 0.41984 0.651264 0.632832 0.980992 0.212992 0.331776 0.425984 0.659456 0.64512 0.989184 1.97632 3.00032 3.987456 5.955584 6.055936 8.869888 2.060288 2.920448 4.171776 5.799936 6.342656 8.626176 0.055296 0.077824 0.116736 0.139264 0.176128 0.223232 0.065536 0.069632 0.129024 0.147456 0.190464 0.217088 4.5568 5.896192 9.345024 11.573248 14.352384 17.043456 4.99712 5.453824 10.213376 10.69056 15.609856 15.693824 0.108544 0.094208 0.198656 0.182272 0.290816 0.27648 0.088064 0.096256 0.17408 0.182272 0.264192 0.260096 2.670592 2.461696 5.392384 4.847616 8.153088 7.17824 2.756608 2.342912 5.558272 4.603904 8.392704 6.823936 0.14336 0.104448 0.27648 0.208896 0.407552 0.301056 0.129024 0.098304 0.260096 0.202752 0.391168 0.305152 11.73504 9.050112 24.205312 17.053696 37.300224 23.875584 13.092864 6.83008 26.79808 12.484608 41.00096 16.836608 0.047104 0.018432 0.090112 0.043008 0.13312 0.0512 0.043008 0.018432 0.090112 0.026624 0.139264 0.043008 3.565568 1.073152 7.151616 2.080768 10.76224 3.00032 3.61472 0.927744 7.251968 1.767424 10.919936 2.52928 0.008192 0 0.012288 0 0.012288 0 0.008192 0 0.012288 0 0.02048 0l0 0 0 0c3.801088 0.774144 7.630848 1.458176 11.483136 2.048 3.848192 0.587776 7.727104 1.091584 11.626496 1.4848 0.086016 0.026624 0.182272 0.026624 0.27648 0.032768 0.090112 0.01024 0.176128 0.018432 0.260096 0.018432 3.874816 0.38912 7.780352 0.692224 11.70432 0.909312 3.926016 0.200704 7.876608 0.311296 11.831296 0.311296 3.964928 0 7.897088-0.11264 11.808768-0.311296 3.907584-0.217088 7.79264-0.520192 11.659264-0.909312 0.096256 0 0.19456-0.008192 0.294912-0.018432 0.096256-0.006144 0.200704-0.006144 0.303104-0.032768 3.887104-0.391168 7.753728-0.897024 11.585536-1.4848 3.842048-0.589824 7.647232-1.273856 11.431936-2.048 0.016384 0 0.03072 0 0.04096 0 0.008192 0 0.012288 0 0.012288 0 0.022528 0 0.03072 0 0.043008 0 0 0 0.016384 0 0.034816 0 3.661824-0.761856 7.299072-1.593344 10.9056-2.521088 3.60448-0.917504 7.184384-1.916928 10.727424-3.00032 0.043008-0.016384 0.096256-0.026624 0.147456-0.043008 0.0512-0.018432 0.114688-0.026624 0.180224-0.043008 14.200832-4.352 27.901952-10.01472 40.984576-16.836608 13.084672-6.823936 25.556992-14.82752 37.298176-23.877632 0.129024-0.094208 0.262144-0.198656 0.38912-0.301056 0.131072-0.104448 0.256-0.208896 0.387072-0.305152 2.859008-2.209792 5.668864-4.489216 8.429568-6.821888s5.480448-4.734976 8.142848-7.17824c0.083968-0.088064 0.176128-0.16384 0.264192-0.260096 0.09216-0.086016 0.180224-0.17408 0.268288-0.268288 5.419008-5.003264 10.637312-10.24 15.650816-15.710208 5.009408-5.472256 9.80992-11.167744 14.381056-17.08032 0.059392-0.06144 0.120832-0.129024 0.172032-0.192512 0.053248-0.067584 0.106496-0.135168 0.151552-0.208896 2.177024-2.834432 4.298752-5.70368 6.363136-8.636416 2.06848-2.920448 4.087808-5.875712 6.06208-8.886272 0.210944-0.319488 0.423936-0.641024 0.641024-0.960512 0.21504-0.321536 0.428032-0.641024 0.641024-0.974848 1.875968-2.930688 3.715072-5.902336 5.496832-8.910848 1.783808-3.018752 3.516416-6.080512 5.189632-9.172992 0.200704-0.374784 0.407552-0.745472 0.610304-1.13664 0.210944-0.382976 0.417792-0.763904 0.62464-1.161216 1.142784-2.152448 2.2528-4.325376 3.340288-6.51264 1.083392-2.185216 2.144256-4.395008 3.172352-6.623232 1.404928 0.137216 2.818048 0.268288 4.225024 0.372736 1.400832 0.104448 2.797568 0.176128 4.186112 0.176128 27.648 0 55.097344-12.199936 77.989888-33.241088 22.884352-21.047296 41.207808-50.952192 50.59584-86.386688 10.752-40.521728 7.77216-80.611328-5.730304-112.664576C857.595904 233.908224 833.572864 209.893376 802.228224 201.508864L802.228224 201.508864 802.228224 201.508864zM191.342592 366.841856c-7.36256-27.779072-6.207488-55.513088 1.482752-77.568 7.694336-22.050816 21.917696-38.4 40.712192-43.42784 1.982464-0.530432 3.9936-0.919552 6.02112-1.179648 2.02752-0.268288 4.079616-0.387072 6.141952-0.387072 1.824768 0 3.653632 0.120832 5.48864 0.32768 1.83296 0.21504 3.672064 0.528384 5.50912 0.917504l0 63.67232 0 63.680512c0 3.874816 0.096256 7.74144 0.260096 11.58144 0.169984 3.852288 0.411648 7.682048 0.710656 11.487232 0.03072 0.520192 0.06144 1.021952 0.090112 1.544192 0.036864 0.509952 0.067584 1.021952 0.108544 1.542144 0.3072 3.608576 0.690176 7.19872 1.140736 10.768384 0.446464 3.571712 0.96256 7.124992 1.521664 10.663936 0.1024 0.641024 0.210944 1.257472 0.311296 1.882112 0.104448 0.62464 0.208896 1.23904 0.3072 1.855488 0.610304 3.51232 1.28 6.995968 2.002944 10.452992 0.72704 3.459072 1.511424 6.885376 2.361344 10.283008 0.12288 0.528384 0.256 1.048576 0.395264 1.57696 0.13312 0.530432 0.282624 1.058816 0.415744 1.5872 0.157696 0.598016 0.3072 1.1776 0.4608 1.757184 0.151552 0.581632 0.3072 1.155072 0.466944 1.744896-16.181248-2.65216-32.190464-12.632064-45.637632-27.551744S197.28384 389.269504 191.342592 366.841856L191.342592 366.841856 191.342592 366.841856zM651.556864 314.589184l-37.920768 28.573696-37.924864 28.567552 13.791232 45.213696 13.787136 45.203456c0.534528 1.748992 0.489472 3.588096-0.063488 5.25312-0.555008 1.665024-1.60768 3.15392-3.088384 4.237312-0.75776 0.546816-1.579008 0.964608-2.433024 1.23904-0.858112 0.28672-1.736704 0.423936-2.615296 0.423936-0.851968 0-1.71008-0.129024-2.533376-0.380928-0.821248-0.251904-1.60768-0.641024-2.322432-1.153024l-39.12704-27.02336-39.12704-27.02336-39.1168 27.02336-39.118848 27.02336c-1.486848 1.048576-3.233792 1.552384-4.980736 1.533952-1.742848-0.026624-3.485696-0.579584-4.954112-1.665024-1.47456-1.083392-2.523136-2.574336-3.065856-4.237312-0.546816-1.665024-0.585728-3.504128-0.038912-5.25312l13.76256-45.203456 13.76256-45.213696-37.912576-28.567552-37.916672-28.573696c-1.460224-1.103872-2.500608-2.619392-3.035136-4.294656-0.528384-1.67936-0.550912-3.518464 0.012288-5.269504 0.559104-1.734656 1.6384-3.201024 3.043328-4.237312 1.396736-1.052672 3.115008-1.665024 4.950016-1.701888l47.620096-0.970752 47.622144-0.954368 15.644672-44.673024 15.648768-44.67712c0.59392-1.724416 1.703936-3.15392 3.117056-4.159488 1.417216-1.005568 3.13344-1.579008 4.954112-1.579008 1.830912 0 3.551232 0.571392 4.962304 1.579008 1.419264 1.005568 2.523136 2.435072 3.125248 4.159488l15.642624 44.67712 15.644672 44.673024 47.603712 0.954368 47.603712 0.970752c1.839104 0.036864 3.567616 0.649216 4.972544 1.701888 1.404928 1.038336 2.48832 2.504704 3.045376 4.237312 0.55296 1.75104 0.530432 3.590144 0 5.269504C654.057472 311.969792 653.02528 313.485312 651.556864 314.589184L651.556864 314.589184 651.556864 314.589184zM832.68608 366.841856c-5.955584 22.427648-16.836608 42.2912-30.281728 57.212928-13.441024 14.91968-29.448192 24.899584-45.647872 27.551744 0.16384-0.571392 0.321536-1.161216 0.475136-1.744896 0.147456-0.569344 0.299008-1.159168 0.444416-1.757184 0.147456-0.530432 0.288768-1.058816 0.428032-1.579008 0.139264-0.52224 0.274432-1.048576 0.403456-1.585152 0.851968-3.397632 1.6384-6.823936 2.3552-10.283008 0.720896-3.457024 1.380352-6.94272 1.982464-10.452992 0.114688-0.616448 0.221184-1.232896 0.321536-1.855488s0.200704-1.23904 0.29696-1.882112c0.567296-3.538944 1.077248-7.092224 1.527808-10.663936 0.448512-3.569664 0.831488-7.159808 1.150976-10.774528 0.045056-0.514048 0.08192-1.026048 0.118784-1.527808 0.032768-0.503808 0.059392-1.005568 0.094208-1.507328 0.294912-3.815424 0.530432-7.653376 0.694272-11.513856 0.159744-3.858432 0.251904-7.725056 0.251904-11.599872l0-63.680512 0-63.67232c1.83296-0.380928 3.680256-0.692224 5.515264-0.917504 1.8432-0.208896 3.682304-0.32768 5.50912-0.32768 2.056192 0 4.10624 0.120832 6.13376 0.387072 2.023424 0.270336 4.032512 0.649216 5.996544 1.179648 18.804736 5.02784 33.040384 21.377024 40.740864 43.42784C838.889472 311.328768 840.044544 339.062784 832.68608 366.841856L832.68608 366.841856 832.68608 366.841856z" p-id="3392" fill="#2a333c"></path></svg>